<svg viewBox="0 0 32 32" fill="currentColor" width="64" height="64" xmlns="http://www.w3.org/2000/svg" xmlns:xlink="http://www.w3.org/1999/xlink">
    <path d="M8.64 11.7688 3.5625 16 8.64 20.2313a1 1 0 1 1-1.28 1.5362l-6-5a1 1 0 0 1 0-1.5362l6-5a1.0003 1.0003 0 0 1 1.28 1.5375zM30.64 15.2313l-6-5a1.0003 1.0003 0 1 0-1.28 1.5375L28.4375 16 23.36 20.2313a1 1 0 1 0 1.28 1.5362l6-5a1 1 0 0 0 0-1.5362zM20.3413 4.06A1 1 0 0 0 19.06 4.6587l-8 22.0001a1 1 0 0 0 0.5988 1.2824A1.0175 1.0175 0 0 0 12 28a1 1 0 0 0 0.94-0.6587l8-22.0001A1 1 0 0 0 20.3413 4.06z" />
</svg>