<svg viewBox="0 0 20 20" color="#926fb1" width="32" height="32" xmlns="http://www.w3.org/2000/svg" xmlns:xlink="http://www.w3.org/1999/xlink">
    <path fill="currentColor" d="M5.719 14.75c-0.236 0-0.474-0.083-0.664-0.252L-5e-3 10 5.336 5.252c0.412-0.365 1.044-0.33 1.411 0.083s0.33 1.045-0.083 1.412L3.005 10l3.378 3.002c0.413 0.367 0.45 0.999 0.083 1.412-0.197 0.223-0.472 0.336-0.747 0.336zM14.664 14.748 20.005 10l-5.06-4.498c-0.413-0.367-1.045-0.33-1.411 0.083-0.367 0.413-0.33 1.045 0.083 1.412L16.995 10l-3.659 3.252c-0.413 0.367-0.45 0.999-0.083 1.412C13.45 14.887 13.725 15 14 15c0.236 0 0.474-0.083 0.664-0.252zM9.986 16.165l2-12c0.091-0.545-0.277-1.06-0.822-1.151-0.547-0.092-1.061 0.277-1.15 0.822l-2 12c-0.091 0.545 0.277 1.06 0.822 1.151C8.892 16.996 8.946 17 9.001 17c0.48 0 0.904-0.347 0.985-0.835z" />
</svg>