<svg viewBox="0 0 32 32" color="#fff" fill="currentColor" width="32" height="32" xmlns="http://www.w3.org/2000/svg" xmlns:xlink="http://www.w3.org/1999/xlink">
    <path d="M28.075 18.121v7.896c0 0.552-0.312 0.999-0.998 0.999-0.166 0-0.577-0.354-1.082-0.887V4.935c0.505-0.533 0.916-0.887 1.082-0.887 0.748 0 0.998 0.447 0.998 0.998v8.096c1.353 0.038 2.613 1.135 2.613 2.489 0 1.355-1.26 2.452-2.613 2.49zM12.015 20.046c0.062 0 0-9.029 0-9.029 6.857 0 10.922-3.01 13.064-5.074V25.12c-2.142-2.063-6.207-5.074-13.064-5.074zM8.021 27.952 6.024 20.025H4.026c0 0-0.594-1.348-0.864-2.996H2.028c-0.551 0-0.998-0.447-0.998-0.999v-0.998c0-0.552 0.447-0.999 0.998-0.999h1.134c0.271-1.648 0.864-2.995 0.864-2.995h6.99v8.987H9.019l0.252 0.998h0.997l0.499 1.998H9.773l1.243 4.931z" />
</svg>