<svg viewBox="0 0 24 24" fill="currentColor" xmlns="http://www.w3.org/2000/svg" xmlns:xlink="http://www.w3.org/1999/xlink">
  <path transform="matrix(-1, 0, 0, 1, 24.00394, 0)" d="M12.292 2.06v-1e-3l11.25 4.75a0.749 0.749 0 0 1 0 1.382L19 10.108V15a0.75 0.75 0 0 1-0.11 0.391h-1e-3a2.84 2.84 0 0 1-0.392 0.482c-0.249 0.256-0.625 0.58-1.163 0.896-1.08 0.638-2.776 1.23-5.334 1.23-0.673 0-1.286-0.041-1.846-0.113a0.75 0.75 0 0 1 0.192-1.487c0.492 0.063 1.042 0.1 1.654 0.1 2.317 0 3.746-0.533 4.572-1.021 0.31-0.178 0.596-0.397 0.849-0.65l0.079-0.085V10.74l-5.208 2.2a0.75 0.75 0 0 1-0.584 0L5.75 10.424v3.17c0.502 0.129 0.96 0.391 1.327 0.758C7.656 14.93 8 15.762 8 16.78v4.5a0.761 0.761 0 0 1-0.345 0.634 2.157 2.157 0 0 1-0.21 0.117 3.923 3.923 0 0 1-0.52 0.213A6.121 6.121 0 0 1 5 22.532a6.092 6.092 0 0 1-1.925-0.288 4.065 4.065 0 0 1-0.52-0.213 1.816 1.816 0 0 1-0.22-0.124A0.757 0.757 0 0 1 2 21.283v-4.5c0-1.02 0.344-1.85 0.923-2.43a2.904 2.904 0 0 1 1.327-0.757V9.793L0.458 8.19a0.75 0.75 0 0 1 0-1.38l11.25-4.75a0.75 0.75 0 0 1 0.584 0zM12 11.436 21.322 7.5 12 3.564 2.678 7.5zM5 15c-0.377 0-0.745 0.141-1.017 0.413-0.265 0.265-0.483 0.7-0.483 1.368v4.022c0.299 0.105 0.797 0.228 1.5 0.228s1.201-0.123 1.5-0.228V16.78c0-0.669-0.218-1.103-0.483-1.368A1.433 1.433 0 0 0 5 15z" />
</svg>