<svg viewBox="0 0 32 32" fill="currentColor" width="32" height="32" xmlns="http://www.w3.org/2000/svg" xmlns:xlink="http://www.w3.org/1999/xlink">
    <path d="M24 13h-2a3.0033 3.0033 0 0 0-3-3V8a5.0057 5.0057 0 0 1 5 5z" />
    <path d="M28 13h-2a7.0078 7.0078 0 0 0-7-7V4a9.01 9.01 0 0 1 9 9z" />
    <path d="M20.3333 21.4823l2.24-2.24a2.1667 2.1667 0 0 1 2.3368-0.48l2.7281 1.0913A2.1666 2.1666 0 0 1 29 21.8659v4.9613a2.1668 2.1668 0 0 1-2.2843 2.1686C7.5938 27.8054 3.7321 11.6114 3.0146 5.4079A2.162 2.162 0 0 1 5.1692 3h4.8728a2.1666 2.1666 0 0 1 2.0117 1.362L13.145 7.09a2.1666 2.1666 0 0 1-0.48 2.3367l-2.24 2.24c0 0 1.2417 8.7323 9.9083 9.8156z" />
</svg>