<svg viewBox="0 0 48 48" color="#fff" fill="currentColor" width="32" height="32" xmlns="http://www.w3.org/2000/svg" xmlns:xlink="http://www.w3.org/1999/xlink">
    <path d="M44 24c0-11.0457-8.9543-20-20-20S4 12.9543 4 24s8.9543 20 20 20 20-8.9543 20-20zM23.9998 39c-1.841 0-3.3333-1.4923-3.3333-3.3333 0-1.841 1.4923-3.3334 3.3333-3.3334 1.8409 0 3.3334 1.4924 3.3334 3.3334 0 1.841-1.4925 3.3333-3.3334 3.3333zM28.7162 23.5172c-0.7122 0.4908-1.4785 0.8113-2.2164 1.0221l0 1.9607c0 1.3807-1.1193 2.5-2.5 2.5-1.3808 0-2.5-1.1193-2.5-2.5l0-4.069c0-1.316 1.0202-2.4065 2.3332-2.4943 0.9233-0.0619 1.6238-0.2457 2.0462-0.5367 0.1776-0.1223 0.3051-0.2628 0.4008-0.4538 0.0995-0.1985 0.216-0.5564 0.216-1.1777 0-0.521-0.205-0.9205-0.7797-1.3028-0.6535-0.4347-1.7035-0.7549-2.9643-0.7949-1.2475-0.0396-2.4588 0.2042-3.3492 0.6359-0.8948 0.4338-1.2218 0.9196-1.3141 1.2788-0.3435 1.3373-1.706 2.143-3.0434 1.7995-1.3373-0.3435-2.143-1.706-1.7995-3.0433 0.5742-2.2355 2.2465-3.6958 3.9757-4.5342 1.7338-0.8405 3.7715-1.1951 5.6893-1.1341 1.9049 0.0605 3.9372 0.54 5.5745 1.6291 1.7164 1.1415 3.0107 2.9898 3.0107 5.466 0 2.6312-1.0613 4.5645-2.7798 5.7487z" />
</svg>