<svg viewBox="0 0 32 32" color="#fff" fill="currentColor" width="32" height="32" xmlns="http://www.w3.org/2000/svg" xmlns:xlink="http://www.w3.org/1999/xlink">
    <path d="M28.7675 7.3588A1 1 0 0 0 28 7H7.835l-0.76-4.1787A1 1 0 0 0 6.0912 2H3a1 1 0 0 0 0 2h2.25l3.195 17.5363a3 3 0 0 0 0.6663 1.4087 3.5 3.5 0 1 0 5.55 1.055h5.6774A3.4688 3.4688 0 0 0 20 25.5 3.5 3.5 0 1 0 23.5 22H11.3963a1 1 0 0 1-0.9838-0.8212L10.0163 19h14.5a3 3 0 0 0 2.9512-2.4637l1.52-8.3576a1 1 0 0 0-0.22-0.8199zM13 25.5a1.5 1.5 0 1 1-1.5-1.5 1.5 1.5 0 0 1 1.5 1.5zM25 25.5a1.5 1.5 0 1 1-1.5-1.5 1.5 1.5 0 0 1 1.5 1.5z" />
</svg>