<svg viewBox="0 0 32 32" fill="currentColor" width="32" height="32" xmlns="http://www.w3.org/2000/svg" xmlns:xlink="http://www.w3.org/1999/xlink">
    <path d="M26.2 4H5.8C4.8 4 4 4.8 4 5.7v20.5c0 0.9 0.8 1.7 1.8 1.7h20.4c1 0 1.8-0.8 1.8-1.7V5.7C28 4.8 27.2 4 26.2 4zM11.1 24.4H7.6V13h3.5zM9.4 11.4c-1.1 0-2.1-0.9-2.1-2.1s0.9-2.1 2.1-2.1c1.1 0 2.1 0.9 2.1 2.1s-1 2.1-2.1 2.1zM24.5 24.3H21v-5.6c0-1.3 0-3.1-1.9-3.1S17 17.1 17 18.5v5.7h-3.5V13h3.3v1.5h0.1c0.5-0.9 1.7-1.9 3.4-1.9 3.6 0 4.3 2.4 4.3 5.5v6.2z" />
</svg>